<svg xmlns="http://www.w3.org/2000/svg" shape-rendering="geometricPrecision" text-rendering="geometricPrecision" image-rendering="optimizeQuality" fill-rule="evenodd" clip-rule="evenodd" viewBox="0 0 513 357.071"><path fill="#fff" fill-rule="nonzero" d="M28.477.32h456.044c15.488 0 28.159 12.672 28.159 28.16v300.111c0 15.488-12.671 28.16-28.159 28.16H28.477c-15.486 0-28.157-12.672-28.157-28.16V28.48C.32 12.992 12.991.32 28.477.32z"/><path fill="#01411C" fill-rule="nonzero" d="M122.835 356.751V.32h361.686c15.488 0 28.159 12.672 28.159 28.16v300.111c0 15.488-12.671 28.16-28.159 28.16H122.835z"/><path fill="#fff" fill-rule="nonzero" d="M290.758 76.663C247.631 90.44 216.4 130.838 216.4 178.534c0 59.057 47.875 106.931 106.931 106.931 43.252 0 80.504-25.681 97.345-62.626a98.756 98.756 0 01-4.89 4.661c-40.459 35.966-102.416 32.322-138.381-8.138s-32.32-102.417 8.139-138.382a99.87 99.87 0 015.214-4.317zm71.563 21.855l45.044 50.672-66.225-14.516 62.11-27.179-34.273 58.495-6.656-67.472z"/><rect fill="none" stroke="#CCC" stroke-width=".64" stroke-miterlimit="22.926" x=".32" y=".319" width="512.359" height="356.43" rx="27.231" ry="28.159"/></svg>